<?xml version="1.0" encoding="utf-8"?>
<!-- Generator: Adobe Illustrator 21.0.2, SVG Export Plug-In . SVG Version: 6.00 Build 0)  -->
<svg version="1.1" id="Layer_1" xmlns="http://www.w3.org/2000/svg" xmlns:xlink="http://www.w3.org/1999/xlink" x="0px" y="0px"
	 viewBox="0 0 60 90" style="enable-background:new 0 0 60 90;" xml:space="preserve">
<style type="text/css">
	.st0{fill:#1C1C1C;}
	.st1{fill:#FFFFFF;}
</style>
<polygon class="st0" points="0,90 30,60 60,60 60,0 0,0 "/>
<path class="st1" d="M57.1,41.9c0-3.7-1.8-6.9-4.6-8.9c-0.8-0.5-1.6-1-2.5-1.3c-1.2-0.5-2.5-0.7-3.8-0.7c-1.4,0-2.6,0.2-3.8,0.7
	c-0.9,0.3-1.7,0.8-2.5,1.3c-2.8,2-4.6,5.2-4.6,8.9c0,6,4.9,10.9,10.9,10.9C52.2,52.8,57.1,48,57.1,41.9z M52.5,35.7
	c1.6,1.6,2.5,3.8,2.5,6.2c0,4.9-4,8.9-8.9,8.9c-4.9,0-8.9-4-8.9-8.9c0-2.4,1-4.6,2.6-6.2c0.5-0.5,1.1-1,1.8-1.4
	c1.3-0.8,2.9-1.3,4.6-1.3c1.7,0,3.2,0.5,4.6,1.3C51.4,34.7,52,35.1,52.5,35.7z"/>
<path class="st1" d="M31.2,11.2c0,2.3,1.8,4.1,4.1,4.1c2.3,0,4.1-1.8,4.1-4.1c0-2.3-1.8-4.1-4.1-4.1C33,7.1,31.2,8.9,31.2,11.2z"/>
<path class="st1" d="M32,15c0,0-1-1.6-2.8-1.6c0,0-1.5-0.2-2.6,1L18,23.1c-0.6,0.6-0.9,1.4-0.9,2.3c0,1.3,0.7,2.4,1.8,3l8.9,4.9v9.3
	c0,1.3,1.1,2.4,2.4,2.4c1.3,0,2.4-1.1,2.4-2.4V31c0,0,0.3-1.8-1.8-2.9l-5.1-2.7l5.5-5.5l2.7,4.2c0.5,0.7,1.1,1,1.7,1h7.9
	c2.5,0,2.5-3.2,0-3.2l-6.8,0L32,15z"/>
<path class="st1" d="M25,41.8c0-1.5-0.3-3-0.9-4.4c0,1.2-0.5,2.3-1.2,3.2c0,0.4,0.1,0.7,0.1,1.1c0,4.9-4,8.9-8.9,8.9
	c-4.9,0-8.9-4-8.9-8.9c0-0.2,0-0.5,0-0.7c-0.8-0.7-1.3-1.7-1.5-2.8c-0.4,1.1-0.6,2.3-0.6,3.5c0,6,4.9,10.9,10.9,10.9
	C20.1,52.7,25,47.9,25,41.8z"/>
<path class="st1" d="M22.3,37.3v-2.7v-0.2c0-2-1.6-3.6-3.6-3.6H14H9c-2,0-3.6,1.6-3.6,3.6v0.7v2.2c0,0.5,0.1,1,0.3,1.4
	C6.2,40,7.5,40.9,9,40.9h9.7c1.7,0,3.1-1.2,3.5-2.7C22.2,37.9,22.3,37.6,22.3,37.3z"/>
</svg>
