<?xml version="1.0" encoding="utf-8"?>
<!-- Generator: Adobe Illustrator 21.0.2, SVG Export Plug-In . SVG Version: 6.00 Build 0)  -->
<svg version="1.1" id="Layer_1" xmlns="http://www.w3.org/2000/svg" xmlns:xlink="http://www.w3.org/1999/xlink" x="0px" y="0px"
	 viewBox="0 0 60 90" style="enable-background:new 0 0 60 90;" xml:space="preserve">
<style type="text/css">
	.st0{fill:#1C1C1C;}
	.st1{fill:#FFFFFF;}
</style>
<polygon class="st0" points="0,90 30,60 60,60 60,0 0,0 "/>
<path class="st1" d="M19.5,16.8c0,2.1,1.7,3.9,3.9,3.9c2.2,0,3.9-1.7,3.9-3.9c0-2.1-1.7-3.9-3.9-3.9C21.3,12.9,19.5,14.7,19.5,16.8z
	"/>
<path class="st1" d="M32.9,25.2l3.4,7.4h1.3c0,0,0,0,0,0l-4-8.6L32.9,25.2z"/>
<path class="st1" d="M10.7,41.7C10.8,41.7,10.8,41.7,10.7,41.7c0.4-0.1,0.6-0.2,0.9-0.3c0.3-0.1,0.6-0.3,1-0.3
	c0.5-0.2,1.1-0.2,1.7-0.2c0.1,0,0.2,0,0.3,0c0.1,0,0.1,0,0.2,0c0.1,0,0.1,0,0.2,0c0,0,0.1,0,0.1,0c0.1,0,0.1,0,0.2,0
	c0.2,0,0.4,0.1,0.5,0.1c0.1,0,0.1,0,0.2,0.1c0,0,0.1,0,0.1,0c0.3,0.1,0.5,0.2,0.8,0.3c0.4,0.2,0.8,0.3,1.2,0.4c0.1,0,0.2,0,0.3,0.1
	c0.3,0.1,0.7,0.1,1.1,0.1c0.9,0,1.8-0.2,2.6-0.6c0.8-0.4,1.7-0.6,2.7-0.6c0.9,0,1.8,0.2,2.7,0.6c0.8,0.4,1.7,0.6,2.6,0.6
	c0.9,0,1.8-0.2,2.6-0.6c0.8-0.4,1.7-0.6,2.7-0.6c0.9,0,1.9,0.2,2.7,0.6c0.8,0.4,1.7,0.6,2.6,0.6c0.9,0,1.8-0.2,2.6-0.6
	c0.8-0.4,1.7-0.6,2.7-0.6c0.8,0,1.6,0.2,2.3,0.4c1.2-1.3,1.9-2.9,1.9-4.8c0-3.9-3.2-7.1-7.1-7.1L42,29.5c-0.7,2.9-3.2,3.5-4.1,3.6
	c-0.1,0-0.2,0-0.2,0c0,0,0,0,0,0c0,0,0,0,0,0h-1l-15.1,0l-1.4-0.8l3.3-5.5l3.6,2.1c2.1,1.4,3.2-0.6,3.2-0.6l2.2-3.5v0l0.2-0.3
	l0.8-1.2l0.4-0.7c1.6-2.5-1.7-4.6-3.3-2L28,24.6L22,21.3c-4.1-2.3-5.9,1.5-5.9,1.5l-4.7,8c-0.8,1.7-0.1,2.4-0.1,2.4l-8.4,0v7.7
	c0.3-0.1,0.6-0.1,1-0.1c0.9,0,1.8,0.2,2.6,0.6c0.8,0.4,1.6,0.6,2.6,0.6c0.3,0,0.5,0,0.8-0.1C10.2,41.8,10.5,41.8,10.7,41.7z"/>
<path class="st1" d="M47,44.6c-0.1,0-0.2,0-0.3-0.1c-0.1,0-0.1,0-0.2,0c0,0-0.1,0-0.1,0c-0.1,0-0.1,0-0.2,0c-0.1,0-0.2,0-0.3,0
	c-0.1,0-0.2,0-0.3,0c0,0,0,0,0,0c-0.1,0-0.2,0-0.2,0c-0.1,0-0.1,0-0.2,0c-0.1,0-0.1,0-0.2,0c-0.2,0-0.3,0-0.4,0.1
	c-0.2,0-0.4,0.1-0.6,0.1c0,0,0,0,0,0c-0.1,0-0.2,0.1-0.3,0.1c0,0-0.1,0-0.1,0c-0.1,0-0.2,0.1-0.3,0.1c-0.1,0-0.2,0.1-0.3,0.1
	c-0.1,0-0.2,0.1-0.3,0.1c-0.7,0.3-1.5,0.4-2.2,0.4c-0.9,0-1.8-0.2-2.6-0.5c-0.2-0.1-0.4-0.2-0.6-0.2c-0.1,0-0.2-0.1-0.3-0.1
	c0,0,0,0,0,0c-0.1,0-0.2,0-0.3-0.1c-0.1,0-0.3-0.1-0.4-0.1c-0.1,0-0.2,0-0.2,0c-0.1,0-0.1,0-0.2,0c0,0,0,0-0.1,0c-0.1,0-0.1,0-0.2,0
	c-0.1,0-0.2,0-0.3,0c-0.1,0-0.2,0-0.3,0c-0.1,0-0.2,0-0.3,0c-0.1,0-0.2,0-0.3,0c0,0,0,0,0,0c-0.1,0-0.2,0-0.3,0
	c-0.5,0.1-1,0.3-1.5,0.5c-0.7,0.3-1.4,0.5-2.2,0.5c-0.1,0-0.2,0-0.4,0c-0.1,0-0.2,0-0.4,0c-0.8,0-1.5-0.2-2.2-0.5
	c-0.1-0.1-0.2-0.1-0.4-0.2c0,0,0,0,0,0c-0.2-0.1-0.3-0.1-0.5-0.2c-0.1,0-0.2,0-0.3-0.1c-0.1,0-0.2,0-0.3-0.1c-0.1,0-0.1,0-0.2,0
	c-0.1,0-0.1,0-0.2,0c-0.1,0-0.1,0-0.2,0c-0.1,0-0.2,0-0.3,0c-0.1,0-0.2,0-0.3,0c-0.1,0-0.2,0-0.2,0c-0.1,0-0.1,0-0.2,0
	c-0.1,0-0.1,0-0.2,0c0,0-0.1,0-0.1,0c-0.1,0-0.2,0-0.2,0c0,0-0.1,0-0.1,0c-0.2,0-0.4,0.1-0.5,0.1c-0.1,0-0.2,0.1-0.3,0.1
	c0,0-0.1,0-0.1,0c0,0,0,0-0.1,0c-0.1,0-0.2,0.1-0.2,0.1c-0.1,0-0.2,0.1-0.3,0.1c-0.1,0-0.2,0.1-0.3,0.1c-0.7,0.3-1.4,0.4-2.2,0.4h0
	c-0.9,0-1.8-0.2-2.6-0.5c-0.2-0.1-0.4-0.2-0.6-0.2c0,0,0,0,0,0c-0.1,0-0.2-0.1-0.3-0.1c-0.2-0.1-0.4-0.1-0.6-0.1c-0.1,0-0.1,0-0.2,0
	c-0.1,0-0.2,0-0.2,0c-0.1,0-0.1,0-0.2,0c0,0,0,0,0,0c-0.1,0-0.2,0-0.2,0c-0.1,0-0.2,0-0.3,0c-0.1,0-0.2,0-0.3,0c-0.1,0-0.2,0-0.3,0
	c-0.1,0-0.2,0-0.3,0c0,0,0,0,0,0c-0.1,0-0.2,0-0.3,0c-0.1,0-0.2,0-0.3,0.1c-0.4,0.1-0.8,0.2-1.2,0.4c-0.7,0.3-1.4,0.5-2.2,0.5
	c-0.1,0-0.2,0-0.4,0c-0.1,0-0.2,0-0.4,0c-0.8,0-1.5-0.2-2.2-0.5c-0.8-0.4-1.7-0.6-2.6-0.6c-0.4,0-0.8,0-1.1,0.1v3.8
	c0.4-0.1,0.8-0.1,1.1-0.1c0.9,0,1.8,0.2,2.6,0.6c0.8,0.4,1.6,0.6,2.6,0.6c0.9,0,1.8-0.2,2.5-0.6c0.8-0.4,1.7-0.6,2.6-0.6
	c0.6,0,1.2,0.1,1.8,0.3c0,0,0.1,0,0.1,0c0,0,0.1,0,0.1,0c0.2,0.1,0.5,0.2,0.7,0.3c0.2,0.1,0.3,0.1,0.5,0.2c0,0,0,0,0,0
	c0.1,0,0.1,0,0.1,0c0.1,0,0.1,0,0.2,0.1c0.1,0,0.2,0.1,0.3,0.1c0.2,0,0.4,0.1,0.7,0.1c0.1,0,0.2,0,0.3,0h0c0.1,0,0.2,0,0.3,0
	c0,0,0,0,0,0h0c0.1,0,0.2,0,0.3,0c0,0,0.1,0,0.1,0c0.1,0,0.2,0,0.2,0c0.1,0,0.2,0,0.3,0c0.1,0,0.2,0,0.3-0.1c0.2,0,0.3-0.1,0.5-0.1
	c0.2,0,0.3-0.1,0.5-0.2c0.1,0,0.1-0.1,0.2-0.1c0,0,0,0,0,0c0.1,0,0.2-0.1,0.3-0.1c0.1,0,0.2-0.1,0.2-0.1c0,0,0,0,0.1,0
	c0.1,0,0.2-0.1,0.3-0.1c0.1,0,0.2-0.1,0.3-0.1h0c0.5-0.1,0.9-0.2,1.4-0.2c0.9,0,1.8,0.2,2.6,0.6c0.8,0.4,1.6,0.6,2.6,0.6
	c0.9,0,1.8-0.2,2.5-0.6c0.8-0.4,1.7-0.6,2.6-0.6c0.6,0,1.2,0.1,1.8,0.3c0,0,0.1,0,0.1,0c0,0,0,0,0,0c0.3,0.1,0.5,0.2,0.7,0.3
	c0.2,0.1,0.4,0.2,0.6,0.2c0.1,0,0.2,0.1,0.3,0.1c0.3,0.1,0.6,0.1,1,0.2c0.1,0,0.2,0,0.3,0c0.1,0,0.2,0,0.3,0c0.1,0,0.2,0,0.3,0
	c0,0,0.1,0,0.1,0c0.1,0,0.2,0,0.2,0c0.1,0,0.2,0,0.3,0c0.3,0,0.6-0.1,0.9-0.2c0,0,0,0,0.1,0c0,0,0,0,0,0c0.1,0,0.2-0.1,0.3-0.1
	c0.1,0,0.2-0.1,0.3-0.1c0.1,0,0.2-0.1,0.3-0.1c0,0,0,0,0,0c0,0,0.1,0,0.1,0c0,0,0,0,0.1,0c0,0,0.1,0,0.1,0c0,0,0,0,0,0
	c0.1,0,0.2-0.1,0.3-0.1c0.1,0,0.2-0.1,0.3-0.1c0,0,0,0,0,0c0.5-0.1,0.9-0.2,1.4-0.2c0.9,0,1.8,0.2,2.6,0.6c0.8,0.4,1.6,0.6,2.6,0.6
	c0.9,0,1.8-0.2,2.5-0.6c0.8-0.4,1.7-0.6,2.6-0.6c0.4,0,0.8,0,1.1,0.1v-3.8c-0.4-0.1-0.8-0.1-1.1-0.1c-0.9,0-1.8,0.2-2.6,0.6
	c-0.7,0.3-1.4,0.5-2.2,0.5c-0.1,0-0.2,0-0.4,0c-0.1,0-0.2,0-0.4,0c-0.8,0-1.5-0.2-2.2-0.5c-0.1-0.1-0.2-0.1-0.4-0.2
	C47.5,44.7,47.2,44.6,47,44.6z"/>
</svg>
