<?xml version="1.0" encoding="utf-8"?>
<!-- Generator: Adobe Illustrator 21.0.2, SVG Export Plug-In . SVG Version: 6.00 Build 0)  -->
<svg version="1.1" id="Layer_1" xmlns="http://www.w3.org/2000/svg" xmlns:xlink="http://www.w3.org/1999/xlink" x="0px" y="0px"
	 viewBox="0 0 60 90" style="enable-background:new 0 0 60 90;" xml:space="preserve">
<style type="text/css">
	.st0{fill:#1C1C1C;}
	.st1{fill:#FFFFFF;}
</style>
<polygon class="st0" points="0,90 30,60 60,60 60,0 0,0 "/>
<path class="st1" d="M31.1,12.4c2.2,0,4-1.8,4-4c0-2.2-1.8-4-4-4c-2.2,0-4,1.8-4,4C27.1,10.6,28.9,12.4,31.1,12.4z"/>
<path class="st1" d="M24.3,13c0.2-0.6-0.2-1.2-0.8-1.4l-3.3-0.8c-0.6-0.1-1.2,0.2-1.4,0.8l-2.8,11.6c-0.2,0.6,0.2,1.2,0.8,1.4
	l3.4,0.8c0.6,0.2,1.2-0.2,1.4-0.8L24.3,13z"/>
<path class="st1" d="M39.7,54.4C39.7,54.4,39.7,54.5,39.7,54.4c0,0.6,0.4,1,0.9,1c0.5,0,0.9-0.4,0.9-0.8l6.7-36.5c0,0,0-0.1,0-0.1
	c0-0.5-0.4-0.9-0.9-0.9c-0.5,0-0.8,0.4-0.9,0.8L39.7,54.4z"/>
<path class="st1" d="M17.3,52c0,0.2,0,0.4,0,0.6c0,1.6,1.3,2.8,2.8,2.8c1.3,0,2.4-0.9,2.7-2l4.8-20.1l4.6,20
	c0.3,1.2,1.4,2.1,2.7,2.1c1.6,0,2.8-1.3,2.8-2.8c0-0.2,0-0.4-0.1-0.6l-6.3-26.5l0.5-2.3l0.4,1.8c0.4,1.2,1.5,1.3,1.5,1.3l6.5,1.7
	c0.1,0,0.3,0,0.4,0c1.1,0,1.9-0.9,1.9-1.9c0-0.9-0.6-1.7-1.5-1.9l-5.7-1.4L34,16.4c-0.7-3.5-4.1-3.4-4.1-3.4
	c-3.3-0.1-4.1,3.4-4.1,3.4L17.3,52z"/>
</svg>
