<?xml version="1.0" encoding="utf-8"?>
<!-- Generator: Adobe Illustrator 21.0.2, SVG Export Plug-In . SVG Version: 6.00 Build 0)  -->
<svg version="1.1" id="Layer_1" xmlns="http://www.w3.org/2000/svg" xmlns:xlink="http://www.w3.org/1999/xlink" x="0px" y="0px"
	 viewBox="0 0 60 90" style="enable-background:new 0 0 60 90;" xml:space="preserve">
<style type="text/css">
	.st0{fill:#1C1C1C;}
	.st1{fill:#FFFFFF;}
</style>
<polygon class="st0" points="0,90 30,60 60,60 60,0 0,0 "/>
<polygon class="st1" points="56.9,57 56.9,5.1 52,4 49.2,16.8 44.4,18.7 40.2,30.5 44.2,39.4 43.1,42.9 33.8,45.7 33.3,49.8 
	18.6,53.4 18.7,57 "/>
<path class="st1" d="M39,25.7c0-1.1-0.5-1.9-1.6-2.3l-7.4-2.2l-5.6-6.8c-0.8-0.9-1.9-1.5-3.3-1.7c-2.5-0.4-4.3,0.5-5.5,2.6L9.2,26.1
	c-0.4,0.7-0.6,1.5-0.5,2.5l0.2,13.6L4.2,52.4c-0.2,0.4-0.3,0.8-0.3,1c-0.1,0.9,0,1.6,0.5,2.3c0.5,0.7,1.2,1.1,2.1,1.2
	c1.5,0.2,2.5-0.3,3.1-1.5l5.2-11.1c0.2-0.4,0.3-0.8,0.3-1.3l-0.1-8.4l8,3.5l1.3,8.2c0.2,1.4,1,2.2,2.5,2.4c1,0.1,1.9-0.1,2.6-0.9
	c0.8-0.7,1.1-1.6,0.9-2.6l-1.6-9.9c-0.2-1-0.8-1.8-1.7-2.2L19.9,30l4.5-7.9l2.3,2.9c0.2,0.3,0.5,0.5,0.8,0.6l8.6,2.5
	c0.2,0.1,0.4,0.1,0.6,0.1c0.6,0,1.2-0.2,1.6-0.8C38.7,26.9,39,26.4,39,25.7z"/>
<path class="st1" d="M28.4,7.6c0-1.2-0.5-2.3-1.4-3.2c-0.9-0.9-2-1.4-3.2-1.4c-1.3,0-2.4,0.5-3.3,1.4c-0.9,0.9-1.3,2-1.3,3.2
	c0,1.3,0.4,2.4,1.3,3.3c0.9,0.9,2,1.3,3.3,1.3c1.2,0,2.3-0.4,3.2-1.3C28,9.9,28.4,8.9,28.4,7.6z"/>
<path class="st1" d="M14.7,12.9c0.5-0.8,0.3-1.4-0.5-1.8L12,9.8c-0.8-0.5-1.4-0.3-1.8,0.5L3.4,22.1c-0.5,0.8-0.3,1.4,0.5,1.8L6,25.2
	c0.8,0.5,1.4,0.3,1.8-0.5L14.7,12.9z"/>
</svg>
