<?xml version="1.0" encoding="utf-8"?>
<!-- Generator: Adobe Illustrator 21.0.2, SVG Export Plug-In . SVG Version: 6.00 Build 0)  -->
<svg version="1.1" id="Layer_1" xmlns="http://www.w3.org/2000/svg" xmlns:xlink="http://www.w3.org/1999/xlink" x="0px" y="0px"
	 viewBox="0 0 60 90" style="enable-background:new 0 0 60 90;" xml:space="preserve">
<style type="text/css">
	.st0{fill:#1C1C1C;}
	.st1{fill:#FFFFFF;}
</style>
<polygon class="st0" points="0,90 30,60 60,60 60,0 0,0 "/>
<path class="st1" d="M38.4,32.2c-1.9-3.8-0.4-8.4,3.3-10.3c3.7-1.9,8.3-0.4,10.2,3.4c1.9,3.8,0.4,8.4-3.3,10.3
	C44.9,37.5,40.3,36,38.4,32.2z M36.8,33c2.3,4.6,8,6.5,12.6,4.1c4.6-2.4,6.4-8,4.1-12.6c-2.3-4.6-8-6.5-12.6-4.1
	C36.3,22.7,34.5,28.4,36.8,33z"/>
<path class="st1" d="M23.3,6.3C25,5.4,27.2,6.1,28,7.8c0.9,1.7,0.2,3.9-1.5,4.8c-1.7,0.9-3.8,0.2-4.7-1.5
	C20.9,9.3,21.6,7.2,23.3,6.3z"/>
<path class="st1" d="M16.4,25.4l3.2-10.1c0.3-1.4,1.6-1.8,1.6-1.8c1.4-0.7,2.7,0.1,2.7,0.1l6.2,3.7l5.2-2.7c1.9-1,3.1,1.5,1.2,2.5
	l-6,3.1c-0.4,0.2-1.1,0.3-1.7-0.1l-3.7-2.2l-2.1,6.3l4.9,0.1c2,0,2.5,1.5,2.5,1.5l4.5,8.9c0.5,1,0.1,2.2-0.9,2.7
	c-1,0.5-2.2,0.1-2.7-0.9l-3.6-7.1l-8.7-0.3c-1,0-2-0.6-2.5-1.6C16.3,26.8,16.2,26,16.4,25.4z"/>
<path class="st1" d="M13.8,44.7c-1.9-3.8-0.4-8.4,3.3-10.3c3.7-1.9,8.3-0.4,10.2,3.3c1.9,3.8,0.4,8.4-3.3,10.3
	C20.4,50,15.8,48.5,13.8,44.7z M12.3,45.5c2.3,4.6,8,6.5,12.6,4.1c4.6-2.4,6.4-8,4.1-12.6c-2.3-4.6-8-6.5-12.6-4.1
	C11.8,35.2,10,40.9,12.3,45.5z"/>
<polygon class="st1" points="57,57 3.1,57 11.3,54.6 18.2,54.1 25.6,51.4 32.3,44.8 37.7,44.6 41,40.3 51.6,39.1 57,32.5 "/>
</svg>
