<?xml version="1.0" encoding="utf-8"?>
<!-- Generator: Adobe Illustrator 21.0.2, SVG Export Plug-In . SVG Version: 6.00 Build 0)  -->
<svg version="1.1" id="Layer_1" xmlns="http://www.w3.org/2000/svg" xmlns:xlink="http://www.w3.org/1999/xlink" x="0px" y="0px"
	 viewBox="0 0 60 90" style="enable-background:new 0 0 60 90;" xml:space="preserve">
<style type="text/css">
	.st0{fill:#1C1C1C;}
	.st1{fill:#FFFFFF;}
</style>
<polygon class="st0" points="0,90 30,60 60,60 60,0 0,0 "/>
<path class="st1" d="M49.2,10.9l-8.4,0.6l2.1-3.1c0.5-0.8,0.3-1.8-0.5-2.3c0,0-0.1-0.1-0.2-0.1C35.5,2,24.5,2,17.7,6
	c-0.8,0.4-1.2,1.4-0.7,2.3c0,0,0.1,0.1,0.1,0.2l2.1,3.1l-8.4-0.6c-1.6-0.1-3.2,1.1-3.5,2.7c-3.8,16,4.8,34.9,19.5,42.5
	c1.8,1.1,4.8,1.1,6.6,0c14.6-7.6,23.3-26.5,19.5-42.5C52.4,12,50.9,10.8,49.2,10.9z M42.5,34.3l-3.7,7.7l-2.4-5.1l-2.9,6h-7.3v-2.1
	h5.1l-4.4-6.4h3.8l-5.1-7.6h2.5l-4.3-9.4l-4.3,9.4h2.5L17,34.3h3.6l-4.2,6.4h5.1v2.1h-4.8c-5.7-7-8.4-19.8-6.1-28.5l8.4,0.6
	c1.9,0.1,3.5-1.3,3.6-3.1c0.1-0.6-0.2-1.6-0.6-2.1l-1-1.5c4.9-2.4,13.1-2.4,18,0l-1,1.5c-1,1.5-0.6,3.6,0.9,4.7
	c0.5,0.4,1.5,0.6,2.1,0.6l8.4-0.6c2,7.5,0.1,19.2-4.2,25.6L42.5,34.3z"/>
</svg>
