<?xml version="1.0" encoding="utf-8"?>
<!-- Generator: Adobe Illustrator 21.0.2, SVG Export Plug-In . SVG Version: 6.00 Build 0)  -->
<svg version="1.1" id="Layer_1" xmlns="http://www.w3.org/2000/svg" xmlns:xlink="http://www.w3.org/1999/xlink" x="0px" y="0px"
	 viewBox="0 0 60 90" style="enable-background:new 0 0 60 90;" xml:space="preserve">
<style type="text/css">
	.st0{fill:#1C1C1C;}
	.st1{fill:#FFFFFF;}
</style>
<polygon class="st0" points="0,90 30,60 60,60 60,0 0,0 "/>
<path class="st1" d="M45.1,34.1c0,2.8,2.3,5.2,5.1,5.2c2.8,0,5.1-2.3,5.1-5.2c0-2.8-2.3-5.1-5.1-5.1C47.4,29,45.1,31.2,45.1,34.1z"
	/>
<path class="st1" d="M43.4,52.4C48.1,54.1,52,50,52,50v0l1.9,0.7c0.2,0.1,0.5,0.1,0.7,0.1c1.3,0,2.4-1.1,2.4-2.4
	c0-1-0.6-1.9-1.5-2.2l-7.1-2.8l-5.2-9.2c0,0-0.4-1-1.9-1.6l-17-6.8L14.3,8.8c-0.6-1-1.7-1.6-2.9-1.6C9.5,7.2,8,8.7,8,10.6
	c0,0.6,0.2,1.1,0.4,1.6L21,33.4L13,30.3l-2,1.2l31.7,12.5h0L44,46c0,0,0.5,1.1,2,1.7l3.9,1.5c-2.6,2.6-6.2,1.5-6.2,1.5L5.1,35.1
	L3,36.4L43.4,52.4z"/>
</svg>
