<?xml version="1.0" encoding="utf-8"?>
<!-- Generator: Adobe Illustrator 21.0.2, SVG Export Plug-In . SVG Version: 6.00 Build 0)  -->
<svg version="1.1" id="Layer_1" xmlns="http://www.w3.org/2000/svg" xmlns:xlink="http://www.w3.org/1999/xlink" x="0px" y="0px"
	 viewBox="0 0 60 90" style="enable-background:new 0 0 60 90;" xml:space="preserve">
<style type="text/css">
	.st0{fill:#1C1C1C;}
	.st1{fill:#FFFFFF;}
</style>
<polygon class="st0" points="0,90 30,60 60,60 60,0 0,0 "/>
<path class="st1" d="M47.3,21.2l-5.7-5.7c-0.4-0.4-1-0.7-1.7-0.7l-9,0c-0.6,0-1.1,0.3-1.4,0.7l-6.2,7.2c-0.4,0.3-0.6,0.8-0.6,1.4
	c0,1,0.8,1.9,1.9,1.9c0.6,0,1.1-0.3,1.4-0.7l5.8-6.7l3.3,0L22.3,33.3l-8.6,0c-0.2,0-0.4,0-0.6,0.1c-1.3,0.3-2.1,1.6-1.8,2.8
	c0.2,1.1,1.3,1.9,2.4,1.9l10,0c2.1,0.1,2.9-0.9,2.9-0.9l4.9-5.5l5.7,5.6l-2.3,10.3c-0.1,0.2-0.1,0.4-0.1,0.6c0,1.3,1.1,2.4,2.4,2.4
	c1.2,0,2.1-0.8,2.3-1.9L42.4,36c0.6-2-0.5-2.9-0.5-2.9l-5-5l5.5-6.4l3.5,3.5c0,0,1.4,1.5,3.1-0.3l5.7-5.8c0.3-0.3,0.4-0.8,0.4-1.2
	c0-1.1-0.9-1.9-1.9-1.9c-0.5,0-0.9,0.2-1.2,0.5L47.3,21.2z"/>
<ellipse class="st1" cx="44.4" cy="12.1" rx="3.7" ry="3.7"/>
<path class="st1" d="M57,50.2l-1.5,0c0,1.2-1,2.2-2.3,2.2H16.3v1.5h36.9C55.3,53.9,57,52.3,57,50.2z"/>
<polygon class="st1" points="42.6,50.2 56.9,21.4 55.5,20.8 41,50.2 "/>
<path class="st1" d="M24.7,48.3l-1.1-1.1c-0.9,0.9-2.3,0.9-3.2,0L3,29.8l0,2.1l16.4,16.4C20.8,49.8,23.2,49.8,24.7,48.3z"/>
<polygon class="st1" points="22.1,21.9 23.1,20.8 11.8,9.5 10.8,10.6 "/>
</svg>
