<?xml version="1.0" encoding="utf-8"?>
<!-- Generator: Adobe Illustrator 21.0.2, SVG Export Plug-In . SVG Version: 6.00 Build 0)  -->
<svg version="1.1" id="Layer_1" xmlns="http://www.w3.org/2000/svg" xmlns:xlink="http://www.w3.org/1999/xlink" x="0px" y="0px"
	 viewBox="0 0 60 90" style="enable-background:new 0 0 60 90;" xml:space="preserve">
<style type="text/css">
	.st0{fill:#1C1C1C;}
	.st1{fill:#FFFFFF;}
</style>
<polygon class="st0" points="0,90 30,60 60,60 60,0 0,0 "/>
<path class="st1" d="M52.6,28.3c0.6-1.8-1-2.4-1-2.4l-5.9-2.1L42.9,15c0,0-0.1-1.3-2.3-2l-4.4-1.7c0,0-2-0.9-3.6,0.2l-7.7,4.2
	c0,0-0.7,0.3-1.6,2l-3.3,6.7c0,0-0.6,1.5,1,2.5c0,0,1.8,1.1,2.7-1l3.2-6.3l5.4-3.1l-3.9,10.3l-1.9,13.7l-6,6.9L7.8,47.2l-0.5,2.1
	l13.8,6.7c0.3,0.2,0.7,0.3,1,0.4c2.4,0.6,4.9-0.9,5.5-3.4c0.4-1.8-0.3-3.6-1.6-4.6l5.2-6.1c0.4-0.5,1.1-1.4,1.3-2.4l1.2-7.9l7.5,7.5
	v9.3L30,51.3v2.2l15,3.3C45.3,57,45.6,57,46,57c2.5,0,4.6-2,4.6-4.6c0-2.5-2-4.6-4.6-4.6V37.7c0,0,0.1-1.1-0.8-2.7l-7.1-7.4l2.4-6.6
	l1.5,4.5c0.2,0.7,0.7,1.3,1.4,1.5l6.8,2.6C50.2,29.5,51.8,30,52.6,28.3z M24.6,49.9c0.8,0.6,1.2,1.6,1,2.6c-0.3,1.3-1.7,2.2-3,1.9
	c-0.1,0-0.2,0-0.3-0.1l-10.5-5l7.6,0.1c0,0.7,0.2,1.4,0.8,2c1,0.9,2.5,0.8,3.4-0.2L24.6,49.9z M46,49.9c1.4,0,2.5,1.1,2.5,2.5
	c0,1.4-1.1,2.5-2.5,2.5c-0.1,0-0.2,0-0.3,0l-11.4-2.5l7-1.6c0.2,1.1,1.1,2,2.3,2c1.3,0,2.4-1.1,2.4-2.4V49.9z"/>
<path class="st1" d="M45.2,7.4C45.2,5,43.3,3,40.9,3c-2.4,0-4.3,2-4.3,4.4c0,2.4,2,4.4,4.3,4.4C43.3,11.7,45.2,9.8,45.2,7.4z"/>
</svg>
