<?xml version="1.0" encoding="utf-8"?>
<!-- Generator: Adobe Illustrator 21.0.2, SVG Export Plug-In . SVG Version: 6.00 Build 0)  -->
<svg version="1.1" id="Layer_1" xmlns="http://www.w3.org/2000/svg" xmlns:xlink="http://www.w3.org/1999/xlink" x="0px" y="0px"
	 viewBox="0 0 60 90" style="enable-background:new 0 0 60 90;" xml:space="preserve">
<style type="text/css">
	.st0{fill:#1C1C1C;}
	.st1{fill:#FFFFFF;}
</style>
<polygon class="st0" points="0,90 30,60 60,60 60,0 0,0 "/>
<path class="st1" d="M52.6,31.1l-19.8,5.4l-3.5-5c-0.4-0.6-1-1-1.7-1.3l-9.3-3.4c-1-0.4-2.2-0.2-3.1,0.4L4.5,34.4
	c-0.9,0.6-1.5,1.6-1.5,2.7c0,0.2,0,0.4,0,0.5c0,0.3,0.1,0.6,0.2,0.9c0.1,0.2,0.2,0.5,0.4,0.7c1.1,1.6,3.2,2,4.8,0.9l9.2-6.3l2.4,0.9
	c-3.8,2.6-7.5,5.1-9.7,6.6c0.7,0.1,1.5,0.4,2.1,0.7c0,0,0.1,0,0.2,0.1c0.5,0.2,1,0.4,1.5,0.5c0.6,0.1,1.2,0.2,1.8,0.2c0,0,0,0,0,0
	c0.1,0,0.3,0,0.5,0c0.1,0,0.2,0,0.4,0c0.1,0,0.1,0,0.2,0c0.2,0,0.5-0.1,0.7-0.1c0.1,0,0.2,0,0.3-0.1c0,0,0,0,0,0
	c0.1,0,0.2,0,0.3-0.1c0.4-0.1,0.8-0.3,1.1-0.4h0c0.3-0.1,0.5-0.2,0.8-0.3c0,0,0.1,0,0.1,0c0.1,0,0.2-0.1,0.3-0.1c0,0,0.1,0,0.1,0
	c0.1,0,0.2-0.1,0.3-0.1c0.1,0,0.1,0,0.2-0.1c0.3-0.1,0.6-0.1,1-0.1c0.1,0,0.2,0,0.3,0c0.2,0,0.3,0,0.5,0c1.1,0,2.2,0.2,3.2,0.6
	c0.1,0.1,0.3,0.1,0.4,0.2c0.1,0.1,0.3,0.1,0.4,0.2c0.1,0,0.3,0.1,0.4,0.1c0.1,0,0.2,0.1,0.3,0.1c0,0,0,0,0,0c0.1,0,0.1,0,0.2,0.1
	c0.1,0,0.2,0,0.3,0.1c0.1,0,0.2,0,0.3,0c0,0,0.1,0,0.2,0c0.4,0.1,0.9,0.1,1.3,0.1c1.2,0,2.4-0.3,3.5-0.7c0.3-0.1,0.5-0.2,0.8-0.3
	c0.1,0,0.3-0.1,0.4-0.1c0.1,0,0.3-0.1,0.4-0.1c0.6-0.2,1.3-0.2,2-0.2c1,0,1.9,0.2,2.8,0.5l14.6-4c1.2-0.3,2.1-1.3,2.4-2.5
	C57,35,57,34.7,57,34.4c0-0.3,0-0.6-0.1-0.9C56.4,31.7,54.4,30.6,52.6,31.1z"/>
<path class="st1" d="M37.4,34c2.8-0.8,4.5-3.7,3.7-6.5c-0.8-2.8-3.7-4.5-6.5-3.7c-2.8,0.8-4.5,3.7-3.7,6.5
	C31.6,33.1,34.3,34.9,37.4,34z"/>
<path class="st1" d="M44.1,47.3c-0.6,0-1.2-0.1-1.8-0.2c-0.2,0-0.3-0.1-0.5-0.1c-0.1,0-0.3-0.1-0.4-0.1c-0.1,0-0.3-0.1-0.4-0.1
	c0,0,0,0,0,0c-0.1,0-0.3-0.1-0.4-0.2c-1.1-0.5-2.3-0.8-3.6-0.8c-0.3,0-0.6,0-0.9,0.1c-0.9,0.1-1.8,0.4-2.6,0.7
	c-1,0.5-2.2,0.7-3.5,0.7c-1.2,0-2.4-0.3-3.5-0.7c-1.1-0.5-2.3-0.8-3.6-0.8c-1.3,0-2.5,0.3-3.6,0.8c-1,0.5-2.2,0.7-3.4,0.7
	c-0.7,0-1.4-0.1-2.1-0.2c-0.5-0.1-1-0.3-1.4-0.5c-0.1,0-0.1,0-0.2-0.1c-1.1-0.5-2.3-0.8-3.6-0.8c-0.7,0-1.3,0.1-2,0.2
	c-0.1,0-0.3,0.1-0.4,0.1c-0.1,0-0.3,0.1-0.4,0.1c-0.3,0.1-0.5,0.2-0.8,0.3h0C4.5,46.8,3.8,47,3,47.1v5.2c0.1,0,0.3,0,0.4-0.1
	c0.1,0,0.2,0,0.3-0.1c0,0,0,0,0,0c0.1,0,0.2,0,0.3-0.1c0.4-0.1,0.8-0.3,1.2-0.4c0.3-0.1,0.5-0.2,0.8-0.3c0,0,0.1,0,0.1,0
	c0.1,0,0.2-0.1,0.3-0.1c0,0,0.1,0,0.1,0c0.1,0,0.2-0.1,0.3-0.1c0.1,0,0.2,0,0.2,0c0.3-0.1,0.6-0.1,1-0.1c0.1,0,0.2,0,0.3,0
	c0.2,0,0.3,0,0.5,0c1.1,0,2.2,0.2,3.2,0.6c0.1,0.1,0.3,0.1,0.4,0.2c0.1,0.1,0.3,0.1,0.4,0.2c0.1,0.1,0.3,0.1,0.4,0.2
	c0.1,0,0.2,0.1,0.3,0.1c0,0,0,0,0,0c0.1,0,0.1,0,0.2,0c0.1,0,0.2,0.1,0.3,0.1c0.1,0,0.2,0,0.3,0c0.1,0,0.1,0,0.2,0
	c0.4,0.1,0.9,0.1,1.3,0.1c1.2,0,2.4-0.3,3.5-0.7h0c0.3-0.1,0.5-0.2,0.8-0.3c0.1,0,0.3-0.1,0.4-0.1c0.1,0,0.3-0.1,0.4-0.1
	c0.6-0.1,1.3-0.2,2-0.2c0.3,0,0.5,0,0.8,0c0.6,0,1.2,0.2,1.7,0.4c0.4,0.1,0.7,0.2,1.1,0.4c0.1,0,0.1,0.1,0.2,0.1
	c1,0.5,2.2,0.7,3.5,0.7c1.2,0,2.4-0.3,3.5-0.7c1.1-0.5,2.3-0.8,3.6-0.8c1.3,0,2.5,0.3,3.6,0.8c1.1,0.5,2.2,0.7,3.5,0.7
	c1.2,0,2.4-0.3,3.5-0.7c1.1-0.5,2.3-0.8,3.6-0.8c1.3,0,2.5,0.3,3.6,0.8h0c0.3,0.1,0.5,0.2,0.8,0.3c0.3,0.1,0.6,0.2,0.9,0.2
	c0,0,0,0,0,0c0.2,0.1,0.4,0.1,0.6,0.1v-5.2c0,0-0.1,0-0.2,0c0,0-0.1,0-0.2,0c-0.1,0-0.2,0-0.3,0c-0.1,0-0.2,0-0.3-0.1
	C56,47,56,47,55.9,47c0,0,0,0,0,0c-0.1,0-0.2-0.1-0.3-0.1c-0.1,0-0.3-0.1-0.4-0.2c-0.1,0-0.3-0.1-0.4-0.2c-0.1-0.1-0.3-0.1-0.4-0.2
	c-1-0.4-2.1-0.6-3.2-0.6c-0.2,0-0.3,0-0.5,0c-0.1,0-0.2,0-0.3,0c-0.3,0-0.6,0.1-1,0.1c-0.1,0-0.2,0-0.2,0.1c-0.1,0-0.2,0.1-0.3,0.1
	c0,0-0.1,0-0.1,0c-0.1,0-0.2,0.1-0.3,0.1c0,0-0.1,0-0.1,0c-0.3,0.1-0.5,0.2-0.8,0.3l0,0c-0.2,0.1-0.4,0.2-0.6,0.2
	c-0.2,0.1-0.4,0.1-0.6,0.2c-0.1,0-0.2,0-0.3,0.1c0,0,0,0,0,0c-0.1,0-0.2,0-0.3,0.1c-0.2,0-0.5,0.1-0.7,0.1c0,0-0.1,0-0.2,0
	c-0.1,0-0.3,0-0.4,0c-0.1,0-0.2,0-0.2,0C44.2,47.3,44.2,47.3,44.1,47.3L44.1,47.3C44.1,47.3,44.1,47.3,44.1,47.3z"/>
</svg>
