<?xml version="1.0" encoding="utf-8"?>
<!-- Generator: Adobe Illustrator 21.1.0, SVG Export Plug-In . SVG Version: 6.00 Build 0)  -->
<svg version="1.1" id="Layer_1" xmlns="http://www.w3.org/2000/svg" xmlns:xlink="http://www.w3.org/1999/xlink" x="0px" y="0px"
	 viewBox="0 0 25 25" style="enable-background:new 0 0 25 25;" xml:space="preserve">
<style type="text/css">
	.st0{fill:none;stroke:#77787B;stroke-width:1.6544;stroke-linecap:round;stroke-linejoin:round;stroke-miterlimit:10;}
	.st1{fill:#77787B;}
	.st2{fill:#FFFFFF;stroke:#77787B;stroke-width:0.75;stroke-miterlimit:10;}
</style>
<g>
	<line class="st0" x1="6.8" y1="1.1" x2="6.8" y2="4.4"/>
	<line class="st0" x1="18.1" y1="1.1" x2="18.1" y2="4.4"/>
	<path class="st1" d="M2.3,24.9c-1.3,0-2.3-1-2.3-2.3v-18c0-1.3,1-2.3,2.3-2.3h0.1h2.4v2.3c0,1.1,0.9,1.9,1.9,1.9s1.9-0.9,1.9-1.9
		V2.2h7.6v2.3c0,1.1,0.9,1.9,1.9,1.9s1.9-0.9,1.9-1.9V2.2h2.6h0c1.3,0,2.3,1,2.3,2.3v18c0,1.3-1,2.3-2.3,2.3H2.3z M22.8,8.8H2V21
		c0,1.1,0.9,1.9,1.9,1.9h16.9c1.1,0,1.9-0.9,1.9-1.9V8.8z"/>
	<line class="st2" x1="12.5" y1="7" x2="12.5" y2="23.9"/>
	<line class="st2" x1="6.8" y1="7.5" x2="6.8" y2="24.1"/>
	<line class="st2" x1="18.1" y1="7.5" x2="18.1" y2="24.1"/>
	<line class="st2" x1="23.8" y1="13.6" x2="1.1" y2="13.6"/>
	<line class="st2" x1="23" y1="18.6" x2="1" y2="18.6"/>
</g>
</svg>
