<?xml version="1.0" encoding="utf-8"?>
<!-- Generator: Adobe Illustrator 21.1.0, SVG Export Plug-In . SVG Version: 6.00 Build 0)  -->
<svg version="1.1" id="Layer_1" xmlns="http://www.w3.org/2000/svg" xmlns:xlink="http://www.w3.org/1999/xlink" x="0px" y="0px"
	 viewBox="0 0 34 49" style="enable-background:new 0 0 34 49;" xml:space="preserve">
<style type="text/css">
	.st0{fill:#1C1C1C;}
	.st1{fill:#00FF32;}
</style>
<g>
	<path class="st0" d="M2,48c-0.1,0-0.3,0-0.4-0.1C1.3,47.8,1,47.4,1,47V2c0-0.6,0.4-1,1-1h30c0.6,0,1,0.4,1,1v30c0,0.6-0.4,1-1,1
		H17.4L2.7,47.7C2.5,47.9,2.3,48,2,48z"/>
	<g>
		<path class="st1" d="M32,2v30H17L2,47V2H32 M32,0H2C0.9,0,0,0.9,0,2v45c0,0.8,0.5,1.5,1.2,1.8C1.5,49,1.8,49,2,49
			c0.5,0,1-0.2,1.4-0.6L17.8,34H32c1.1,0,2-0.9,2-2V2C34,0.9,33.1,0,32,0L32,0z"/>
	</g>
</g>
</svg>
