<?xml version="1.0" encoding="utf-8"?>
<!-- Generator: Adobe Illustrator 21.1.0, SVG Export Plug-In . SVG Version: 6.00 Build 0)  -->
<svg version="1.1" id="Layer_1" xmlns="http://www.w3.org/2000/svg" xmlns:xlink="http://www.w3.org/1999/xlink" x="0px" y="0px"
	 width="589.5px" height="407.9px" viewBox="0 0 589.5 407.9" style="enable-background:new 0 0 589.5 407.9;" xml:space="preserve"
	>
<style type="text/css">
	.st0{fill:#FFFFFF;}
</style>
<g>
	<g>
		<path class="st0" d="M268.9,384.3c-0.2,11.9-9.9,21.6-22.1,21.6c-12,0-21.8-9.9-21.8-22.1v-79.8l43.9,17.5v62.3
			C268.9,384.1,268.9,384.1,268.9,384.3z"/>
		<path class="st0" d="M159.7,381.8c1.4,12.2-7.4,23-19.6,24.4c-0.7,0.2-1.6,0.2-2.3,0.2c-11,0-20.7-8.3-22.1-19.6l-11.5-101.6
			c9.4-7.6,21.6-12.2,34-12.2c4.6,0,9.4,0.9,13.8,2.1l-3.9,7.3L159.7,381.8z"/>
		<path class="st0" d="M481.2,116.4c-12.2-9-2.7-57.5-12.6-44.6c-9.4,12.4-30.8,60.3,0.7,74.3c14.7,6.4,20,1.4,24.1-4.8
			C498,133.2,494.8,126.5,481.2,116.4z M313.1,406.4c-12.2,0-22.1-9.9-22.1-22.1v-77.7l-22.1-8.8L225,280.4L164.1,256
			c-0.7-0.2-1.1-0.5-1.6-0.7c-16.3-6-34-5.3-49.9,0.2c-14.5,5.3-27.6,15-36.3,27.8l11.5,98.4c1.1,12.2-7.4,23-19.5,24.4
			c-0.7,0.2-1.6,0.2-2.5,0.2c-8.3,0-15.6-4.6-19.3-11.7c-1.4-2.3-2.3-5.1-2.5-7.8l-12.2-106c-0.5-4.4,0.2-8.7,2.3-12.7l18.9-35.9
			c3.2-7.8,1.4-17.2-2.1-20.7c0,0-3.7-4.8-5.3-7.4l-0.2-0.2c-10.1-15.9-16.3-38.2-16.3-62.8c0-3.9,0.2-7.8,0.5-11.7
			c0,0-3,3.7-5.7,7.6c-3,3.9-4.4,8.1-4.4,13.1v81.6c0,5.1-2.8,10.1-9,10.1c-6.2,0-9-5.1-9-10.1v-85.6c0-10.6,3.2-19.8,9.9-27.8
			c6.9-7.8,32-39.1,38.2-44.4C63.1,62.8,76.9,56.2,102.5,50c9.2-2.3,208.1-46.5,208.1-46.5c44.1-9.9,106.2,8.8,138,41.4l12,12.2
			c0,0,12.6-3.5,28-7.8c15.4-4.4,38,3,50.4,16.3l39.1,42.3c4.1,4.4,7.6,11.7,9,18.9c0.4,3.2,0.7,6.7,0.4,9.4l-9.9,90.1
			c-1.6,15.2-12.4,30.1-23.9,32.9c-11.5,3.2-20.7,5.8-20.7,5.8l-16.3,28.5c-11.9,20.9-31.7,20.9-43.7,0c-12-20.7-47.8-24.8-79.8-9.4
			c-32,15.6-58.2,28.5-58.2,28.5v71.7C334.9,396.5,325.3,406.4,313.1,406.4z"/>
	</g>
</g>
</svg>
