<?xml version="1.0" encoding="utf-8"?>
<!-- Generator: Adobe Illustrator 21.0.2, SVG Export Plug-In . SVG Version: 6.00 Build 0)  -->
<svg version="1.1" id="Layer_1" xmlns="http://www.w3.org/2000/svg" xmlns:xlink="http://www.w3.org/1999/xlink" x="0px" y="0px"
	 viewBox="0 0 60 90" style="enable-background:new 0 0 60 90;" xml:space="preserve">
<style type="text/css">
	.st0{fill:#1C1C1C;}
	.st1{fill:#FFFFFF;}
</style>
<polygon class="st0" points="0,90 30,60 60,60 60,0 0,0 "/>
<path class="st1" d="M39.5,20.9c0.4,0.9,0,2-0.9,2.4c-0.4,0.2-0.8,0.2-1.2,0.1l-4.8-1.8l1.1-3.5l5,2C39,20.2,39.3,20.5,39.5,20.9z"
	/>
<path class="st1" d="M33.4,3.2c1.8-0.8,3.8,0,4.6,1.8c0.8,1.8,0,3.8-1.8,4.6c-0.8,0.3-1.6,0.4-2.3,0.2c-1-0.3-1.8-1-2.3-2
	C30.9,6,31.7,4,33.4,3.2z"/>
<path class="st1" d="M12.8,36.4c0.1-0.1,0.3-0.2,0.5-0.3l7.4-3.2L26,15.4l-2.9,1.2l-2.4,7.9c-0.1,0.5-0.5,0.9-1,1.1
	c-0.9,0.4-1.9,0-2.3-0.9c-0.2-0.5-0.2-1,0-1.4l2.7-8.5c0.1-0.5,0.5-0.9,1-1.1l7.8-3.4c0.6-0.3,1.2-0.2,1.7,0l0,0l2.3,0.8
	c0.5,0.2,0.9,0.6,1.2,1.1c0.2,0.5,0.2,1,0.1,1.5l-2.8,9.1l6.2,2.4c0,0,1.3,0.4,1.5,2.4l2.3,11.9c0.2,0.9-0.2,1.8-0.9,2.4
	c-0.1,0.1-0.2,0.1-0.4,0.2c-1.1,0.5-2.5,0-3-1.2c-0.1-0.2-0.1-0.4-0.2-0.6L35,30.6l-7-2.6l-2.2,6.6c0,0-0.3,1.1-2.2,1.9l-8.6,3.8
	c-0.7,0.3-1.6,0.3-2.2-0.2c-0.2-0.1-0.4-0.3-0.6-0.5C11.6,38.5,11.8,37.1,12.8,36.4z"/>
<polygon class="st1" points="3.1,57 13.6,53.4 18.3,50.3 32.6,47.7 34.1,44 46.6,43 50.2,37.8 57,37.1 57,37.3 57,57 "/>
</svg>
