<?xml version="1.0" encoding="utf-8"?>
<!-- Generator: Adobe Illustrator 21.0.2, SVG Export Plug-In . SVG Version: 6.00 Build 0)  -->
<svg version="1.1" id="Layer_1" xmlns="http://www.w3.org/2000/svg" xmlns:xlink="http://www.w3.org/1999/xlink" x="0px" y="0px"
	 viewBox="0 0 60 90" style="enable-background:new 0 0 60 90;" xml:space="preserve">
<style type="text/css">
	.st0{fill:#1C1C1C;}
	.st1{fill:#FFFFFF;}
</style>
<polygon class="st0" points="0,90 30,60 60,60 60,0 0,0 "/>
<path class="st1" d="M55,38.3c0.6-1,0.2-2.4-0.9-2.9L46.6,31l-0.9-11.3c-0.1-1.4-0.9-2.6-1.9-3.3L33,9.9c-2.6-1.7-6-1-7.8,1.5
	c-0.9,1.4-1.2,3.2-0.7,4.6l2.9,9.7l-8.9,2.8c-1.1,0.4-2,1.5-2.1,2.8c-0.2,1.9,1.2,3.1,3.1,3.3c0.4,0.1,0.7-0.1,1.1-0.2l12.1-4
	c0.9-0.3,1.9-1.2,2-2c0.1-0.6,0.2-1,0.1-1.4L33,20.6l7.3,4.3l0.9,6.3c0.1,1.1,0.6,1.9,1.4,2.4l9.5,5.6C53.1,39.7,54.5,39.4,55,38.3z
	"/>
<path class="st1" d="M54.9,54.9L53.4,54c-0.7,1.2-2.3,1.6-3.5,0.9l-44.3-26l-0.9,1.5l44.3,26C51.1,57.6,53.7,56.9,54.9,54.9z"/>
<path class="st1" d="M55.3,21.8c0-2.3-1.9-4.2-4.2-4.2c-2.3,0-4.2,1.9-4.2,4.2c0,2.3,1.9,4.2,4.2,4.2C53.4,26.1,55.3,24.2,55.3,21.8
	z"/>
<path class="st1" d="M49,11.3c0.3-0.6,0.2-1.3-0.4-1.6L37.8,3.2c-0.6-0.3-1.3-0.2-1.7,0.4l-1.9,3.1C34,7.3,34.2,8,34.7,8.3l10.8,6.4
	c0.6,0.3,1.3,0.2,1.6-0.4L49,11.3z"/>
</svg>
