<?xml version="1.0" encoding="utf-8"?>
<!-- Generator: Adobe Illustrator 21.0.2, SVG Export Plug-In . SVG Version: 6.00 Build 0)  -->
<svg version="1.1" id="Layer_1" xmlns="http://www.w3.org/2000/svg" xmlns:xlink="http://www.w3.org/1999/xlink" x="0px" y="0px"
	 viewBox="0 0 60 90" style="enable-background:new 0 0 60 90;" xml:space="preserve">
<style type="text/css">
	.st0{fill:#1C1C1C;}
	.st1{fill:#FFFFFF;}
</style>
<polygon class="st0" points="0,90 30,60 60,60 60,0 0,0 "/>
<path class="st1" d="M24.2,39.2H10.2c-1.4,0-2.8-0.7-3.5-1.9c-0.6-1-0.8-2.3-0.5-3.4c-1,0.8-1.8,2-2,3.4c-0.1,0.3-0.1,0.7-0.1,1.1
	c0,1.5,0.6,2.8,1.5,3.8c0.2-0.1,0.4-0.2,0.6-0.2c0.1,0,0.3-0.1,0.4-0.1c0.1,0,0.3-0.1,0.4-0.1c0.2,0,0.4-0.1,0.6-0.1
	c0.5-0.1,0.9-0.1,1.4-0.1c1.3,0,2.5,0.3,3.6,0.8c0,0,0.1,0,0.2,0.1c0.5,0.2,1,0.4,1.5,0.5c0.6,0.1,1.2,0.2,1.8,0.2c0,0,0,0,0,0
	c0.2,0,0.3,0,0.5,0c0.1,0,0.3,0,0.4,0c0,0,0.1,0,0.2,0c0.2,0,0.5-0.1,0.7-0.1c0.1,0,0.2,0,0.3-0.1c0,0,0,0,0,0c0.1,0,0.2,0,0.3-0.1
	c0.4-0.1,0.8-0.3,1.2-0.4c0.3-0.1,0.5-0.2,0.8-0.3c0,0,0.1,0,0.1,0c0.1,0,0.2-0.1,0.3-0.1c0,0,0.1,0,0.1,0c0.1,0,0.2-0.1,0.3-0.1
	c0.1,0,0.1,0,0.2-0.1c0.3-0.1,0.6-0.1,1-0.1c0.1,0,0.2,0,0.3,0c0.2,0,0.3,0,0.5,0c1.1,0,2.2,0.2,3.2,0.6c0.1,0.1,0.3,0.1,0.4,0.2
	c0.1,0.1,0.3,0.1,0.4,0.2c0.1,0,0.3,0.1,0.4,0.1c0.1,0,0.2,0.1,0.3,0.1c0,0,0,0,0,0c0.1,0,0.1,0,0.2,0.1c0.1,0,0.2,0,0.3,0.1
	c0.1,0,0.2,0,0.3,0c0.1,0,0.1,0,0.2,0c0.4,0.1,0.9,0.1,1.3,0.1c1.2,0,2.4-0.3,3.5-0.7c0.3-0.1,0.5-0.2,0.8-0.3
	c0.1,0,0.3-0.1,0.4-0.1c0.1,0,0.3-0.1,0.4-0.1c0.6-0.2,1.3-0.2,2-0.2c1.3,0,2.5,0.3,3.6,0.8c0,0,0.1,0,0.2,0.1
	c0.5,0.2,1,0.4,1.5,0.5c0.6,0.1,1.2,0.2,1.8,0.2c0,0,0,0,0,0c0.2,0,0.3,0,0.5,0c0.1,0,0.2,0,0.4,0c0,0,0.1,0,0.2,0c0,0,0.1,0,0.1,0
	c1.4-1,2.3-2.7,2.3-4.5c0-0.4,0-0.7-0.1-1.1c-0.2-1.3-0.9-2.4-1.8-3.2c-1-0.9-2.3-1.4-3.8-1.4H27.6c0.5,0.7,0.8,1.5,0.8,2.4
	C28.4,37.3,26.5,39.2,24.2,39.2z"/>
<path class="st1" d="M8.2,36.2c0.4,0.7,1.2,1.1,2,1.1h13.9c1.3,0,2.4-1.1,2.4-2.4c0-1.3-1.1-2.4-2.4-2.4H14l0.8-1.8
	c0-0.1,0.1-0.2,0.1-0.3h1.8h5.8L18.4,27c-1.2-1-2.7-1.4-4.2-1.1c-1,0.2-2,0.7-2.7,1.5c-0.2,0.2-0.3,0.4-0.5,0.6c0,0,0,0,0,0
	c-0.2,0.2-0.3,0.4-0.5,0.7l-1.8,3.8l-0.1,0.1l-0.6,1.3C7.7,34.7,7.8,35.5,8.2,36.2z"/>
<path class="st1" d="M44.1,47.3c-0.6,0-1.2-0.1-1.8-0.2c-0.2,0-0.3-0.1-0.5-0.1c-0.3-0.1-0.6-0.2-0.8-0.3c0,0,0,0,0,0
	c-0.1,0-0.3-0.1-0.4-0.2c-1.1-0.5-2.3-0.8-3.6-0.8c-1.3,0-2.5,0.3-3.6,0.8c-1,0.5-2.2,0.7-3.5,0.7s-2.4-0.3-3.5-0.7
	c-1.1-0.5-2.3-0.8-3.6-0.8c-1.3,0-2.5,0.3-3.6,0.8c-1.1,0.5-2.2,0.7-3.5,0.7c-1.2,0-2.4-0.3-3.5-0.7c0,0-0.1,0-0.2-0.1
	c-0.1,0-0.2-0.1-0.3-0.1c-0.1,0-0.2-0.1-0.3-0.1c-0.9-0.4-1.9-0.6-2.9-0.6c-0.7,0-1.3,0.1-2,0.2c-0.1,0-0.3,0.1-0.4,0.1
	c-0.1,0-0.3,0.1-0.4,0.1c-0.3,0.1-0.5,0.2-0.8,0.3h0C4.5,46.8,3.8,47,3,47.1v5.2c0.1,0,0.3,0,0.4-0.1c0.1,0,0.2,0,0.3-0.1
	c0,0,0,0,0,0c0.1,0,0.2,0,0.2-0.1c0.4-0.1,0.8-0.3,1.2-0.4c0.3-0.1,0.5-0.2,0.8-0.3c0,0,0.1,0,0.1,0c0.1,0,0.2-0.1,0.3-0.1
	c0,0,0.1,0,0.1,0c0.1,0,0.2-0.1,0.3-0.1c0.1,0,0.2,0,0.3,0C7.3,51,7.6,50.9,8,50.9c0.1,0,0.2,0,0.3,0c0.2,0,0.3,0,0.5,0
	c1.1,0,2.2,0.2,3.2,0.6c0.1,0.1,0.3,0.1,0.4,0.2c0.1,0.1,0.3,0.1,0.4,0.2c0.1,0.1,0.3,0.1,0.4,0.2c0.1,0,0.2,0.1,0.3,0.1
	c0,0,0,0,0,0c0.1,0,0.1,0,0.2,0c0.1,0,0.2,0.1,0.3,0.1c0.1,0,0.2,0,0.3,0c0,0,0.1,0,0.2,0c0.4,0.1,0.9,0.1,1.3,0.1
	c1.2,0,2.4-0.3,3.5-0.7h0c0.3-0.1,0.5-0.2,0.8-0.3c0.1,0,0.3-0.1,0.4-0.1c0.1,0,0.3-0.1,0.4-0.1c0.6-0.1,1.3-0.2,2-0.2
	c1,0,2,0.2,2.9,0.5c0.2,0.1,0.4,0.2,0.6,0.3c0.1,0,0.1,0.1,0.2,0.1c1,0.5,2.2,0.7,3.5,0.7c1.2,0,2.4-0.3,3.5-0.7
	c1.1-0.5,2.3-0.8,3.6-0.8c1.3,0,2.5,0.3,3.6,0.8c1,0.5,2.2,0.7,3.5,0.7c1.2,0,2.4-0.3,3.5-0.7c1.1-0.5,2.3-0.8,3.6-0.8
	s2.5,0.3,3.6,0.8c0.3,0.1,0.5,0.2,0.8,0.3c0.3,0.1,0.6,0.2,0.9,0.2c0,0,0,0,0,0c0.2,0,0.4,0.1,0.6,0.1v-5.2c0,0-0.1,0-0.1,0
	c0,0-0.1,0-0.2,0c-0.1,0-0.2,0-0.3,0c-0.1,0-0.2,0-0.3-0.1C56,47,56,47,55.9,47c0,0,0,0,0,0c-0.1,0-0.2-0.1-0.3-0.1
	c-0.1,0-0.3-0.1-0.4-0.2c-0.2,0-0.3-0.1-0.4-0.2c-0.1-0.1-0.3-0.1-0.4-0.2c-1-0.4-2.1-0.6-3.1-0.6c-0.2,0-0.3,0-0.5,0
	c-0.1,0-0.2,0-0.3,0c-0.3,0-0.6,0.1-1,0.1c-0.1,0-0.2,0-0.2,0c-0.1,0-0.2,0.1-0.3,0.1c0,0-0.1,0-0.1,0c-0.1,0-0.2,0.1-0.3,0.1
	c0,0-0.1,0-0.1,0c-0.3,0.1-0.5,0.2-0.8,0.3l0,0c-0.2,0.1-0.4,0.2-0.6,0.2c-0.2,0.1-0.4,0.1-0.6,0.2c-0.1,0-0.2,0-0.2,0.1
	c0,0,0,0,0,0c-0.1,0-0.2,0.1-0.3,0.1c-0.2,0-0.5,0.1-0.7,0.1c-0.1,0-0.1,0-0.2,0c-0.1,0-0.1,0-0.2,0c-0.1,0-0.1,0-0.2,0
	c-0.1,0-0.2,0-0.2,0C44.2,47.3,44.2,47.3,44.1,47.3L44.1,47.3C44.1,47.3,44.1,47.3,44.1,47.3z"/>
<path class="st1" d="M56.9,33.9c0.1-0.2,0.1-0.5,0.1-0.7c0-1.3-0.9-2.5-2.2-2.9l-16.7-4.4c-1-0.3-2,0-2.7,0.7l-3.8,3.8h11.2v0
	c1.4,0.2,2.8,0.7,3.9,1.6c0,0,0,0,0,0c0.2,0.1,0.4,0.3,0.6,0.5c0.7,0.6,1.3,1.4,1.7,2.3l4.5,1.2C54.8,36.4,56.5,35.5,56.9,33.9z"/>
<path class="st1" d="M13.4,23.4c2-2,2-5.2,0-7.2c-2-2-5.2-2-7.2,0c-1,1-1.5,2.3-1.5,3.6c0,1.3,0.5,2.6,1.5,3.6
	C8.2,25.4,11.5,25.4,13.4,23.4z"/>
</svg>
