<?xml version="1.0" encoding="utf-8"?>
<!-- Generator: Adobe Illustrator 21.0.2, SVG Export Plug-In . SVG Version: 6.00 Build 0)  -->
<svg version="1.1" xmlns="http://www.w3.org/2000/svg" xmlns:xlink="http://www.w3.org/1999/xlink" x="0px" y="0px"
	 viewBox="0 0 60 90" style="enable-background:new 0 0 60 90;" xml:space="preserve">
<style type="text/css">
	.st0{fill:#FFFFFF;}
	.st1{fill:#1C1C1C;}
</style>
<g id="Layer_4">
</g>
<g id="Layer_3">
	<rect x="1.8" y="5.5" class="st0" width="56.8" height="53"/>
</g>
<g id="Layer_2">
	<path class="st1" d="M27.5,40.4l1.7,1.9l-2.3-0.2c-0.6,0-1.1,0.1-1.6,0.3l-1.5,0.8L27.5,40.4z"/>
	<path class="st1" d="M17,53.5l10.3-5.3l4.7,0.4l3.8,0.3c0.3,0,0.5,0.1,0.8,0.1c1.7,0,3.3-1,3.9-2.7l1-2.5l2.5-6.5l0.7-1.8l1.5,1.2
		l0.2,0.2l-0.7,1.1l-2.1,3.4c-0.5,0.8-0.5,1.7-0.1,2.4c0.2,0.4,0.5,0.7,0.9,0.9c0.4,0.2,0.8,0.4,1.3,0.4c0.8,0,1.6-0.4,2-1.1
		l0.9-1.5l3.1-4.9c0.1-0.2,0.2-0.4,0.3-0.6l1.7,0.4v0c-0.1,0.4-0.3,0.8-0.5,1.2l-4,6.3c-0.8,1.2-2.1,2-3.6,2c0,0-0.1,0-0.2,0
		L39.6,53l-24,1.8l-0.1-0.9C16.1,53.8,16.5,53.7,17,53.5z"/>
	<path class="st1" d="M26.1,33.9l-8.6,6.6c-1.3,1-1.6,2.9-0.6,4.2c0.5,0.6,1.1,1,1.8,1.1l-4.5,2.3c-1.5,0.8-2,2.6-1.3,4
		c0.5,1,1.6,1.6,2.7,1.6h0l0.1,0.9l-4.4,0.3l-2.7-2.7l3.3-7.8l0.2-3.6l-4.4-8.5h18.4h1.7v0.8C27.2,33.3,26.6,33.5,26.1,33.9z"/>
	<path class="st1" d="M0,0v90l30-30h30V0H0z M42.3,18.6c2.2,0,4,1.8,4,4c0,1.9-1.3,3.4-3,3.9c-0.1,0-0.3,0.1-0.4,0.1
		c-0.1,0-0.2,0-0.3,0c-0.2,0-0.4,0-0.6,0c-0.5,0-1-0.2-1.4-0.4c-1.4-0.6-2.3-2-2.3-3.6C38.3,20.4,40.1,18.6,42.3,18.6z M27.9,16.4
		l0.2-1.2l0.5-1.2l1.7-3.1l0.5-0.5l0.6-0.2l0.7,0.2l0.5,0.4l0.2,0.7l-0.2,0.7l-1.7,3.2l-0.3,1l-0.1,1l0.3,1l0.6,0.8v0.1l0.8,1
		l0.6,1.2l0.2,1.2v1.3l-0.2,1.3l-0.6,1.2l-0.5,0.5L31.1,27l-0.7-0.2L30,26.3l-0.1-0.7L30,25l0.4-1l0.1-1.1l-0.3-1L29.6,21h-0.1
		l-0.7-1l-0.6-1.2l-0.3-1.2V16.4z M21,14.2l0.2-1.2l0.5-1.2l1.7-3.2l0.5-0.4l0.7-0.3l0.7,0.2l0.5,0.5l0.2,0.7l-0.2,0.7L24,13l-0.3,1
		l-0.1,1.1l0.3,1l0.7,0.8l0.8,1l0.6,1.2l0.3,1.3v1.3L26,23l-0.6,1.2L24,26.4l-0.5,0.5l-0.7,0.2l-0.7-0.3l-0.4-0.4l-0.2-0.7l0.2-0.7
		l1.4-2.3l0.4-1l0.1-1.1l-0.3-1.1l-0.6-0.9h-0.1l-0.7-1l-0.6-1.1L21,15.4V14.2z M14.3,13.3l0.5-1.2l1-1.8l0.5-0.5l0.6-0.2l0.7,0.2
		l0.5,0.4l0.2,0.7l-0.1,0.7L17,13.5l-0.3,1v1l0.3,1l0.7,0.8v0.1l0.8,1l0.6,1.2l0.3,1.2v1.3L19,23.4l-0.6,1.2L17,26.9l-0.5,0.5
		l-0.7,0.1l-0.6-0.2l-0.5-0.5l-0.2-0.7l0.2-0.7l1.5-2.3l0.4-1v-1.1l-0.3-1l-0.7-0.9l-0.8-1l-0.6-1.2l-0.2-1.2L14,14.6L14.3,13.3z
		 M57,57H11.3H3V29.9h32.9c0,0,0,0.1-0.1,0.2l-0.9,2.5h-7v0.8c0.8,0,1.6,0.3,2.2,1l2.9,3.2l1.4,1.5l3.2-8.3c0.3-0.7,0.8-1.3,1.3-1.8
		l0,0c1.1-0.9,2.7-1.2,4.1-0.6c0.3,0.1,0.5,0.2,0.7,0.4c0.1,0.1,0.3,0.2,0.4,0.3l3.3,2.6l3.6,2.9c0.5,0.4,0.9,1,0.9,1.7
		c0,0.3,0,0.6-0.1,0.9l1.7,0.4c0.2-0.8,0.2-1.7-0.1-2.4l0.8-2.4h-2.8l-3.3-2.6H57V57z"/>
</g>
</svg>
