<?xml version="1.0" encoding="utf-8"?>
<!-- Generator: Adobe Illustrator 21.0.2, SVG Export Plug-In . SVG Version: 6.00 Build 0)  -->
<svg version="1.1" id="Layer_1" xmlns="http://www.w3.org/2000/svg" xmlns:xlink="http://www.w3.org/1999/xlink" x="0px" y="0px"
	 viewBox="0 0 60 90" style="enable-background:new 0 0 60 90;" xml:space="preserve">
<style type="text/css">
	.st0{fill:#1C1C1C;}
	.st1{fill:#FFFFFF;}
</style>
<polygon class="st0" points="0,90 30,60 60,60 60,0 0,0 "/>
<path class="st1" d="M56.1,8c0-2.7-2.2-5-5-5c-2.7,0-4.9,2.2-4.9,5c0,2.7,2.2,5,4.9,5C53.9,12.9,56.1,10.7,56.1,8z"/>
<path class="st1" d="M50.6,57c2.6-0.3,2.1-3.8,2.1-3.8h-1.9v1c0,1-1,0.9-1,0.9H37.1V57H50.6z"/>
<path class="st1" d="M47.7,19.4c1.8-2.3,0.9-5,0.9-5c-1-3-4.4-3.1-4.4-3.1l-25,0c-1.3,0-2.4,1.1-2.4,2.4c0,1.3,1.1,2.4,2.4,2.4
	l17.3,0l-7.3,7.2c-1,1.1-1.6,2.3-1.6,3.8c0,1.5,0.6,2.8,1.6,3.8l11,11.1l0,9c0,1.7,1.4,3.1,3,3.1c1.5,0,3.1-1.8,3.1-3.1V38.6
	c0-0.9-0.4-1.7-0.9-2.2L38,29.1L47.7,19.4z"/>
<path class="st1" d="M16.3,50.7l14.8-14.8l-3.6-3.5c-0.2-0.2-0.4-0.5-0.6-0.7L12.5,46.1c-1.1,0.9-1.4,2.4-0.8,3.7
	c0.8,1.5,2.6,2.1,4,1.3C15.9,51,16.1,50.9,16.3,50.7z"/>
<path class="st1" d="M17.6,54.9l-1.3-1.3l-0.7,0.7c-0.7,0.7-1.3,0-1.3,0l-9-9l-1.3,1.3l9.5,9.5C15.5,57.7,17.6,54.9,17.6,54.9z"/>
</svg>
