<?xml version="1.0" encoding="utf-8"?>
<!-- Generator: Adobe Illustrator 21.0.2, SVG Export Plug-In . SVG Version: 6.00 Build 0)  -->
<svg version="1.1" id="Layer_1" xmlns="http://www.w3.org/2000/svg" xmlns:xlink="http://www.w3.org/1999/xlink" x="0px" y="0px"
	 viewBox="0 0 60 90" style="enable-background:new 0 0 60 90;" xml:space="preserve">
<style type="text/css">
	.st0{fill:#1C1C1C;}
	.st1{fill:#FFFFFF;}
</style>
<polygon class="st0" points="0,90 30,60 60,60 60,0 0,0 "/>
<ellipse class="st1" cx="13.4" cy="19.8" rx="4.2" ry="4.2"/>
<path class="st1" d="M7.8,18.2c0-1.3-1.1-2.4-2.4-2.4c-1.3,0-2.4,1.1-2.4,2.4v26.2h4.8v-7.2h44.4v7.2H57V18.2c0-1.3-1.1-2.4-2.4-2.4
	c-1.3,0-2.4,1.1-2.4,2.4v14.2H7.8V18.2z"/>
<path class="st1" d="M50,30.2l0-8.9c0-1.8-1.5-3.3-3.4-3.3H26.1v12.2H50z"/>
<path class="st1" d="M23.8,28.2v-8.4c0-1.2-0.9-2.1-2.1-2.1c-1.1,0-2.1,0.9-2.1,2.1l0,6.3h-7.6c-1.2,0-2.1,0.9-2.1,2.1
	c0,1.1,0.9,2.1,2.1,2.1h9.7C22.9,30.2,23.8,29.3,23.8,28.2z"/>
</svg>
