<?xml version="1.0" encoding="utf-8"?>
<!-- Generator: Adobe Illustrator 21.0.2, SVG Export Plug-In . SVG Version: 6.00 Build 0)  -->
<svg version="1.1" id="Layer_1" xmlns="http://www.w3.org/2000/svg" xmlns:xlink="http://www.w3.org/1999/xlink" x="0px" y="0px"
	 viewBox="0 0 60 90" style="enable-background:new 0 0 60 90;" xml:space="preserve">
<style type="text/css">
	.st0{fill:#1C1C1C;}
	.st1{fill:#FFFFFF;}
</style>
<polygon class="st0" points="0,90 30,60 60,60 60,0 0,0 "/>
<path class="st1" d="M52.2,38.5c0-0.3,0-0.6-0.1-0.9c-0.4-2.2-2.4-3.9-4.7-3.9h-5.5l2.2-2.2l0.8,0.3c1,0.4,2.1-0.1,2.5-1.2
	c0.3-0.7,0.1-1.5-0.4-2l-1.4-0.7l-10.3-3.8c-0.3-0.2-0.6-0.3-0.9-0.4c-2.3-0.7-4.6,0.6-5.3,2.8L27,33.7h-5.8l2.2-2.2l0.8,0.3
	c1,0.4,2.1-0.1,2.5-1.2c0.3-0.7,0-1.5-0.4-2l-1.4-0.7l-10.3-3.8c-0.3-0.2-0.6-0.3-0.9-0.4c-2.2-0.7-4.6,0.6-5.3,2.8l-2.1,7.1H3v9.1
	c0.8-0.1,1.6-0.3,2.3-0.7c0.1,0,0.1-0.1,0.2-0.1c0.2-0.1,0.4-0.2,0.6-0.2c0.1,0,0.3-0.1,0.4-0.1c0.1,0,0.3-0.1,0.4-0.1
	c0.2,0,0.4-0.1,0.6-0.1c0.5-0.1,0.9-0.1,1.4-0.1c1.3,0,2.5,0.3,3.6,0.8c0,0,0.1,0,0.2,0.1c0.5,0.2,1,0.4,1.5,0.5
	c0.6,0.1,1.2,0.2,1.8,0.2c0,0,0,0,0,0c0.1,0,0.3,0,0.5,0c0.1,0,0.2,0,0.4,0c0.1,0,0.1,0,0.2,0c0.2,0,0.5-0.1,0.7-0.1
	c0.1,0,0.2,0,0.3-0.1c0,0,0,0,0,0c0.1,0,0.2,0,0.3-0.1c0.4-0.1,0.8-0.3,1.2-0.4h0c0.3-0.1,0.5-0.2,0.8-0.3c0,0,0.1,0,0.1,0
	c0.1,0,0.2-0.1,0.3-0.1c0,0,0.1,0,0.1,0c0.1,0,0.2-0.1,0.3-0.1c0.1,0,0.1,0,0.2-0.1c0.3-0.1,0.6-0.1,1-0.1c0.1,0,0.2,0,0.3,0
	c0.2,0,0.3,0,0.5,0c1.1,0,2.2,0.2,3.2,0.6c0.1,0.1,0.3,0.1,0.4,0.2c0.1,0.1,0.3,0.1,0.4,0.2c0.1,0,0.3,0.1,0.4,0.1
	c0.1,0,0.2,0.1,0.3,0.1c0,0,0,0,0,0c0.1,0,0.1,0,0.2,0.1c0.1,0,0.2,0,0.3,0.1c0.1,0,0.2,0,0.3,0c0,0,0.1,0,0.2,0
	c0.4,0.1,0.9,0.1,1.3,0.1c1.2,0,2.4-0.3,3.5-0.7c0.3-0.1,0.5-0.2,0.8-0.3c0.1,0,0.3-0.1,0.4-0.1c0.1,0,0.3-0.1,0.4-0.1
	c0.6-0.2,1.3-0.2,2-0.2c1.3,0,2.5,0.3,3.6,0.8c0.1,0,0.1,0,0.2,0.1c0.5,0.2,1,0.4,1.5,0.5c0.6,0.1,1.2,0.2,1.8,0.2c0,0,0,0,0,0
	c0.2,0,0.3,0,0.5,0c0.1,0,0.2,0,0.4,0c0,0,0.1,0,0.2,0c0,0,0.1,0,0.1,0c0.2,0,0.4-0.1,0.6-0.1c0.1,0,0.2,0,0.3-0.1c0,0,0,0,0,0
	c0.1,0,0.2,0,0.3-0.1c0.4-0.1,0.8-0.3,1.2-0.4c0.3-0.1,0.5-0.2,0.8-0.3c0,0,0.1,0,0.1,0c0.1,0,0.2-0.1,0.3-0.1c0,0,0.1,0,0.1,0
	c0.1,0,0.2-0.1,0.3-0.1c0.1,0,0.1,0,0.2-0.1c0.3-0.1,0.6-0.1,1-0.1c0.1,0,0.2,0,0.3,0c0.2,0,0.3,0,0.5,0c0,0,0.1,0,0.1,0
	C51.8,40.5,52.2,39.5,52.2,38.5z M42.5,31l-2.7,2.7h-3.9l0.3-1.1l1.1-3.6L42.5,31z M21.8,31L19,33.7h-3.9l1.4-4.7L21.8,31z"/>
<path class="st1" d="M57,52.4v-5.2c0,0-0.1,0-0.2,0c0,0-0.1,0-0.2,0c-0.1,0-0.2,0-0.3,0c-0.1,0-0.2,0-0.3-0.1C56,47,56,47,55.9,47
	c0,0,0,0-0.1,0c-0.1,0-0.2-0.1-0.3-0.1c-0.1,0-0.3-0.1-0.4-0.2c-0.1,0-0.3-0.1-0.4-0.2c-0.1-0.1-0.3-0.1-0.4-0.2
	c-1-0.4-2.1-0.6-3.2-0.6c-0.2,0-0.3,0-0.5,0c-0.1,0-0.2,0-0.3,0c-0.3,0-0.6,0.1-1,0.1c-0.1,0-0.2,0-0.2,0c-0.1,0-0.2,0.1-0.3,0.1
	c0,0-0.1,0-0.1,0c-0.1,0-0.2,0.1-0.3,0.1c0,0-0.1,0-0.1,0c-0.3,0.1-0.5,0.2-0.8,0.3l0,0c-0.2,0.1-0.4,0.2-0.6,0.2
	c-0.2,0.1-0.4,0.1-0.6,0.2c-0.1,0-0.2,0-0.3,0.1c0,0,0,0,0,0c-0.1,0-0.2,0-0.3,0.1c-0.2,0-0.5,0.1-0.7,0.1c0,0-0.1,0-0.2,0
	c-0.1,0-0.3,0-0.4,0c-0.1,0-0.2,0-0.2,0c-0.1,0-0.1,0-0.2,0h0c0,0,0,0,0,0c-0.6,0-1.2-0.1-1.8-0.2c-0.2,0-0.3-0.1-0.5-0.1
	c-0.1,0-0.3-0.1-0.4-0.1c-0.1,0-0.3-0.1-0.4-0.1c0,0,0,0,0,0c-0.1,0-0.3-0.1-0.4-0.2c-1.1-0.5-2.3-0.8-3.6-0.8
	c-1.3,0-2.5,0.3-3.6,0.8c-1,0.5-2.2,0.7-3.5,0.7c-1.2,0-2.4-0.3-3.5-0.7c-1.1-0.5-2.3-0.8-3.6-0.8c-1.3,0-2.5,0.3-3.6,0.8
	c-1,0.5-2.2,0.7-3.4,0.7c-1.2,0-2.4-0.3-3.5-0.7c-0.1,0-0.1,0-0.2-0.1c-1.1-0.5-2.3-0.8-3.6-0.8c-0.7,0-1.3,0.1-2,0.2
	c-0.1,0-0.3,0.1-0.4,0.1c-0.1,0-0.3,0.1-0.4,0.1c-0.3,0.1-0.5,0.2-0.8,0.3h0C4.5,46.8,3.8,47,3,47.1v5.2c0.1,0,0.3,0,0.4-0.1
	c0.1,0,0.2,0,0.3-0.1c0,0,0,0,0,0c0.1,0,0.2,0,0.3-0.1c0.4-0.1,0.8-0.3,1.2-0.4c0.3-0.1,0.5-0.2,0.8-0.3c0,0,0.1,0,0.1,0
	c0.1,0,0.2-0.1,0.3-0.1c0,0,0.1,0,0.1,0c0.1,0,0.2-0.1,0.3-0.1c0.1,0,0.2,0,0.2,0c0.3-0.1,0.6-0.1,1-0.1c0.1,0,0.2,0,0.3,0
	c0.2,0,0.3,0,0.5,0c1.1,0,2.2,0.2,3.2,0.6c0.1,0.1,0.3,0.1,0.4,0.2c0.1,0.1,0.3,0.1,0.4,0.2c0.1,0.1,0.3,0.1,0.4,0.2
	c0.1,0,0.2,0.1,0.3,0.1c0,0,0,0,0,0c0.1,0,0.1,0,0.2,0c0.1,0,0.2,0.1,0.3,0.1c0.1,0,0.2,0,0.3,0c0,0,0.1,0,0.2,0
	c0.4,0.1,0.9,0.1,1.3,0.1c1.2,0,2.4-0.3,3.5-0.7h0c0.3-0.1,0.5-0.2,0.8-0.3c0.1,0,0.3-0.1,0.4-0.1c0.1,0,0.3-0.1,0.4-0.1
	c0.6-0.1,1.3-0.2,2-0.2c0.3,0,0.5,0,0.8,0l-1.7,1.7c-1.2-0.7-2.7-0.6-3.7,0.4l-4,4h8.4c0.8-0.9,0.9-2.3,0.4-3.3l2.4-2.4
	c0.4,0.1,0.7,0.2,1.1,0.4c0.1,0,0.1,0.1,0.2,0.1c1,0.5,2.2,0.7,3.5,0.7c1.2,0,2.4-0.3,3.5-0.7c1.1-0.5,2.3-0.8,3.6-0.8
	c1.3,0,2.5,0.3,3.6,0.8c1.1,0.5,2.2,0.7,3.5,0.7c1.2,0,2.4-0.3,3.5-0.7c1.1-0.5,2.3-0.8,3.6-0.8c1.3,0,2.5,0.3,3.6,0.8h0
	c0.3,0.1,0.5,0.2,0.8,0.3c0.3,0.1,0.6,0.2,0.9,0.2c0,0,0,0,0,0C56.6,52.3,56.8,52.4,57,52.4z"/>
<path class="st1" d="M39.5,18.6c0-2.2-1.8-4-4-4c-2.2,0-4,1.8-4,4c0,2.2,1.8,4,4,4C37.7,22.6,39.5,20.8,39.5,18.6z"/>
<path class="st1" d="M18.8,18.6c0-2.2-1.8-4-4-4c-2.2,0-4,1.8-4,4c0,2.2,1.8,4,4,4C17,22.6,18.8,20.8,18.8,18.6z"/>
</svg>
