<?xml version="1.0" encoding="utf-8"?>
<!-- Generator: Adobe Illustrator 21.0.2, SVG Export Plug-In . SVG Version: 6.00 Build 0)  -->
<svg version="1.1" id="Layer_1" xmlns="http://www.w3.org/2000/svg" xmlns:xlink="http://www.w3.org/1999/xlink" x="0px" y="0px"
	 viewBox="0 0 60 90" style="enable-background:new 0 0 60 90;" xml:space="preserve">
<style type="text/css">
	.st0{fill:#1C1C1C;}
	.st1{fill:#FFFFFF;}
</style>
<polygon class="st0" points="0,90 30,60 60,60 60,0 0,0 "/>
<path id="path6400_4_" class="st1" d="M43.6,11c-0.6,0-1.1,0.1-1.6,0.4c0.4-3.4,3.2-6,6.7-6c0.7,0,1.2-0.6,1.2-1.2
	c0-0.7-0.5-1.2-1.2-1.2c-5,0-9.1,4.1-9.1,9.1c0,1.4,0.3,2.8,0.9,4l-2.3,0c-0.3,0-0.5,0.2-0.5,0.5c0,0.1,0.1,0.3,0.2,0.4l3.2,3.2
	l-3.9,5.9H12.9c-1.9,0-3.5,1.6-3.6,3.5v9.7c0,0.2,0.1,0.3,0.3,0.3c0.1,0,0.2-0.1,0.3-0.2l1.8-2.8V41l-2.3,3.7l0,9.6
	c0,1.4,1.1,2.5,2.5,2.5c1.4,0,2.5-1.1,2.5-2.5v-9.1l2.8-3.8v4.3l5.6,9.6c0.7,1.2,2.2,1.6,3.4,0.9c1.2-0.7,1.6-2.2,0.9-3.4l-5.5-9.5
	l2.2-3.4h9.9v14.5c0,1.4,1.1,2.5,2.5,2.5c1.4,0,2.5-1.1,2.5-2.5V41l3.7-3.7l5.7-14h4.3c1.1,0,1.9-0.9,1.9-1.9c0-0.7-0.4-1.3-0.9-1.6
	l-6.5-3.5c-0.2-0.1-0.4-0.2-0.6-0.2l-2.8,0c-0.3-0.3-0.5-0.7-0.7-1.1c-0.2-0.4-0.1-1,0.2-1.3c0.2-0.2,0.5-0.3,0.9-0.3h4.8
	c0.6,0,1.2-0.5,1.2-1.2c0-0.6-0.5-1.2-1.2-1.2H43.6"/>
</svg>
